<svg width="71" height="117" viewBox="0 0 71 117" fill="none" xmlns="http://www.w3.org/2000/svg">
<path fill-rule="evenodd" clip-rule="evenodd" d="M67.1595 13.807C61.3083 20.4733 56.9144 25.1964 51.4195 29.7252C40.8451 38.4427 29.4071 48.0562 16.1608 52.3853C11.2056 54.0046 11.2164 39.2362 11.3729 36.4833C10.7198 31.6144 3.762 33.4605 4.04269 38.6154C4.17763 44.7527 5.11686 53.3947 8.19902 56.601C10.844 59.3539 15.5185 60.93 19.1566 59.1164C37.7144 50.2369 58.075 35.1338 69.3672 17.4505C71.996 13.332 68.9462 11.7612 67.1487 13.807H67.1595Z" fill="#1F1F1F"/>
<path fill-rule="evenodd" clip-rule="evenodd" d="M38.5511 31.0962C37.4769 27.701 33.8765 25.8064 30.5083 26.8697C27.14 27.9331 25.2778 31.555 26.352 34.9503C27.4261 38.3509 31.0265 40.2402 34.3947 39.1768C37.763 38.1134 39.6252 34.4915 38.5511 31.0962Z" fill="#1F1F1F"/>
<path fill-rule="evenodd" clip-rule="evenodd" d="M6.21773 20.8511C7.16235 24.5054 7.68594 31.6953 7.37827 36.861L8.56039 37.0014C8.87346 31.7385 9.56979 25.9844 8.5388 20.7971C12.4522 19.642 14.0554 14.0606 12.1985 9.48863C10.4874 5.28372 6.61717 3.31351 3.562 5.0948C-1.9006 8.27412 -0.0437515 19.3775 6.21773 20.8565V20.8511ZM10.4496 10.1634C11.4752 12.6841 11.54 17.1751 8.80329 18.7729C3.86428 21.6553 -0.750867 9.72074 4.51742 6.64937C7.09758 5.14877 9.59677 8.0636 10.4496 10.1634Z" fill="#009990"/>
<path fill-rule="evenodd" clip-rule="evenodd" d="M26.2867 5.86672C27.4526 6.32013 30.7723 7.11901 31.4848 5.62921C32.2567 4.01526 31.9868 2.52546 30.5024 1.1814C29.0396 -0.146467 26.427 2.47148 25.5256 3.6644C24.5378 4.97068 24.7753 5.28375 26.2813 5.87211L26.2867 5.86672Z" fill="#009990"/>
<path fill-rule="evenodd" clip-rule="evenodd" d="M46.0644 42.4262C53.4379 53.1517 53.8265 70.3222 52.5364 85.2202C51.9643 91.8001 49.5352 108.015 45.9025 113.127C43.0524 115.853 39.247 117.434 38.5075 115.561C39.8299 111.988 40.5532 109.3 41.6112 105.646C45.638 92.2374 44.8337 80.8534 44.8337 76.7132C44.6988 75.7092 43.0039 75.3853 42.5181 76.778C41.4169 88.1674 37.8597 104.604 18.3466 113.008C15.8042 114.104 13.8394 113.311 12.4359 111.394C11.8368 110.574 11.718 109.904 12.7328 109.489C16.0201 108.15 19.2966 106.39 22.1466 104.026C30.4539 97.1332 35.2526 83.6494 35.285 73.9765C35.3066 66.3278 33.4821 58.7276 30.0545 53.1517C28.8022 49.8968 40.8663 35.4036 46.0698 42.4262H46.0644Z" fill="#1F1F1F"/>
</svg>
