<svg width="25" height="40" viewBox="0 0 25 40" fill="none" xmlns="http://www.w3.org/2000/svg">
<path fill-rule="evenodd" clip-rule="evenodd" d="M23.5513 4.4572C21.5439 6.74423 20.0365 8.3646 18.1513 9.9183C14.5235 12.909 10.5994 16.2072 6.05501 17.6924C4.35501 18.2479 4.35872 13.1813 4.41242 12.2368C4.18835 10.5664 1.80131 11.1998 1.89761 12.9683C1.94391 15.0738 2.26613 18.0387 3.32353 19.1387C4.23094 20.0831 5.83464 20.6238 7.08278 20.0016C13.4494 16.9553 20.4346 11.7739 24.3087 5.7072C25.2105 4.29424 24.1642 3.75535 23.5476 4.4572H23.5513Z" fill="#1F1F1F"/>
<path fill-rule="evenodd" clip-rule="evenodd" d="M13.7368 10.3886C13.3683 9.22382 12.1331 8.57382 10.9775 8.93863C9.82196 9.30345 9.18308 10.546 9.55159 11.7109C9.92011 12.8775 11.1553 13.5257 12.3108 13.1608C13.4664 12.796 14.1053 11.5534 13.7368 10.3886Z" fill="#1F1F1F"/>
<path fill-rule="evenodd" clip-rule="evenodd" d="M2.64438 6.87379C2.96845 8.12749 3.14808 10.5942 3.04252 12.3664L3.44808 12.4145C3.55549 10.609 3.79437 8.6349 3.44067 6.85527C4.78326 6.45898 5.33326 4.54417 4.69622 2.97565C4.10919 1.53306 2.78141 0.857137 1.73327 1.46825C-0.140803 2.55899 0.496232 6.36824 2.64438 6.87564V6.87379ZM4.09623 3.20713C4.44808 4.07195 4.4703 5.61268 3.53141 6.16083C1.83697 7.14972 0.25364 3.05528 2.06104 2.00158C2.94623 1.48677 3.80363 2.48676 4.09623 3.20713Z" fill="#FB491D"/>
<path fill-rule="evenodd" clip-rule="evenodd" d="M9.52902 1.73312C9.92902 1.88867 11.0679 2.16274 11.3123 1.65163C11.5772 1.09793 11.4846 0.586822 10.9753 0.125712C10.4735 -0.329842 9.57716 0.568304 9.26791 0.977562C8.92902 1.42571 9.0105 1.53312 9.52716 1.73497L9.52902 1.73312Z" fill="#FB491D"/>
<path fill-rule="evenodd" clip-rule="evenodd" d="M16.3142 14.2756C18.8439 17.9553 18.9772 23.846 18.5346 28.9571C18.3383 31.2145 17.505 36.7775 16.2587 38.5312C15.2809 39.4663 13.9754 40.0089 13.7216 39.3663C14.1754 38.1404 14.4235 37.2182 14.7865 35.9645C16.1679 31.3645 15.892 27.459 15.892 26.0386C15.8457 25.6941 15.2642 25.583 15.0976 26.0608C14.7198 29.9682 13.4994 35.6071 6.805 38.4904C5.93278 38.8663 5.2587 38.5941 4.77722 37.9367C4.57167 37.6552 4.53093 37.4256 4.87907 37.283C6.00685 36.8237 7.13092 36.22 8.1087 35.4089C10.9587 33.0441 12.605 28.4182 12.6161 25.0997C12.6235 22.4756 11.9976 19.8682 10.8217 17.9553C10.392 16.8386 14.5309 11.8664 16.3161 14.2756H16.3142Z" fill="#1F1F1F"/>
</svg>
