<svg width="68" height="116" viewBox="0 0 68 116" fill="none" xmlns="http://www.w3.org/2000/svg">
<path fill-rule="evenodd" clip-rule="evenodd" d="M2.35964 106.289C19.3358 102.786 27.4326 90.1924 30.9681 77.2484C32.6469 69.0059 34.2716 60.7148 30.817 46.9773C29.2084 40.5431 26.9036 35.1831 26.1749 28.8838C28.2314 29.5424 30.4284 29.7691 32.5659 29.5585C34.5847 38.0925 38.4549 43.0477 42.4871 46.3674C50.0549 52.5911 50.789 68.1153 44.7218 75.6182C58.0598 74.8949 72.9363 80.2334 65.3307 95.3041C61.7844 102.332 57.126 107.779 51.685 113.009C46.352 118.137 39.853 113.074 45.321 107.59C48.8296 104.07 52.5109 99.7789 54.8913 95.736C57.682 90.9805 58.4647 87.1966 52.5757 86.5219C48.5543 86.0576 43.9661 86.2628 39.6856 87.5043C32.0909 98.1218 22.3532 108.599 7.54695 112.162C2.05196 113.112 -1.49441 106.861 2.35964 106.289Z" fill="#1F1F1F"/>
<path fill-rule="evenodd" clip-rule="evenodd" d="M49.8281 32.7703C54.0276 32.7703 57.4228 36.1386 57.4228 40.2949C57.4228 44.4512 54.0222 47.8195 49.8281 47.8195C45.634 47.8195 42.2441 44.4512 42.2441 40.2949C42.2441 36.1386 45.6448 32.7703 49.8281 32.7703Z" fill="#1F1F1F"/>
<path fill-rule="evenodd" clip-rule="evenodd" d="M30.9954 2.4992C37.0194 2.4992 41.8937 7.34105 41.8937 13.3057C41.8937 19.2703 37.0194 24.1121 30.9954 24.1121C24.9715 24.1121 20.0972 19.2703 20.0972 13.3057C20.0972 7.34105 24.9877 2.4992 30.9954 2.4992ZM30.9954 0C23.1848 0 16.8585 6.29387 16.8585 14.0506C16.8585 21.8072 23.1794 28.1011 30.9954 28.1011C38.8115 28.1011 45.1432 21.8072 45.1432 14.0506C45.1432 6.29387 38.8061 0 30.9954 0Z" fill="#232323"/>
<path fill-rule="evenodd" clip-rule="evenodd" d="M32.8088 14.682C32.5389 11.8751 31.983 11.3083 30.261 11.562C27.4326 11.9777 28.6363 15.0652 30.1369 16.1286C31.4486 17.0678 33.0355 17.0948 32.8034 14.682H32.8088ZM30.9952 18.0772C28.7604 18.0772 26.9468 16.2743 26.9468 14.0504C26.9468 11.8265 28.7604 10.0237 30.9952 10.0237C33.2299 10.0237 35.0597 11.8265 35.0597 14.0504C35.0597 16.2743 33.246 18.0772 30.9952 18.0772Z" fill="#232323"/>
</svg>
