<svg width="23" height="40" viewBox="0 0 23 40" fill="none" xmlns="http://www.w3.org/2000/svg">
<path fill-rule="evenodd" clip-rule="evenodd" d="M0.66356 36.5407C6.48762 35.3388 9.26539 31.0185 10.4784 26.5777C11.0543 23.75 11.6117 20.9055 10.4265 16.1926C9.87465 13.9852 9.08391 12.1463 8.83391 9.98517C9.53947 10.2111 10.2932 10.2889 11.0265 10.2166C11.7191 13.1444 13.0469 14.8444 14.4302 15.9833C17.0265 18.1185 17.2783 23.4444 15.1969 26.0185C19.7728 25.7703 24.8765 27.6018 22.2672 32.7722C21.0506 35.1833 19.4524 37.0518 17.5857 38.8462C15.7561 40.6055 13.5265 38.8684 15.4024 36.987C16.6061 35.7796 17.8691 34.3073 18.6857 32.9203C19.6432 31.2888 19.9117 29.9907 17.8913 29.7592C16.5117 29.5999 14.9376 29.6703 13.4691 30.0962C10.8635 33.7388 7.5228 37.3333 2.44319 38.5555C0.558004 38.8814 -0.65866 36.737 0.66356 36.5407Z" fill="#1F1F1F"/>
<path fill-rule="evenodd" clip-rule="evenodd" d="M16.9485 11.3184C18.3893 11.3184 19.5541 12.474 19.5541 13.8999C19.5541 15.3258 18.3874 16.4814 16.9485 16.4814C15.5096 16.4814 14.3467 15.3258 14.3467 13.8999C14.3467 12.474 15.5133 11.3184 16.9485 11.3184Z" fill="#1F1F1F"/>
<path fill-rule="evenodd" clip-rule="evenodd" d="M10.4874 0.933303C12.5541 0.933303 14.2263 2.59441 14.2263 4.6407C14.2263 6.68699 12.5541 8.3481 10.4874 8.3481C8.42078 8.3481 6.74856 6.68699 6.74856 4.6407C6.74856 2.59441 8.42633 0.933303 10.4874 0.933303ZM10.4874 0.0758972C7.80782 0.0758972 5.63745 2.23515 5.63745 4.89626C5.63745 7.55736 7.80597 9.71662 10.4874 9.71662C13.1689 9.71662 15.3411 7.55736 15.3411 4.89626C15.3411 2.23515 13.1671 0.0758972 10.4874 0.0758972Z" fill="#FB491D"/>
<path fill-rule="evenodd" clip-rule="evenodd" d="M11.1097 5.11295C11.0171 4.14999 10.8264 3.95554 10.2357 4.04258C9.2653 4.18517 9.67826 5.24443 10.1931 5.60924C10.6431 5.93146 11.1875 5.94072 11.1079 5.11295H11.1097ZM10.4875 6.27776C9.72085 6.27776 9.09863 5.65924 9.09863 4.89628C9.09863 4.13332 9.72085 3.5148 10.4875 3.5148C11.2542 3.5148 11.882 4.13332 11.882 4.89628C11.882 5.65924 11.2597 6.27776 10.4875 6.27776Z" fill="#FB491D"/>
</svg>
