<svg width="69" height="70" viewBox="0 0 69 70" fill="none" xmlns="http://www.w3.org/2000/svg">
<g opacity="0.6">
<path d="M57.884 69.6212C60.8527 69.6212 63.6443 68.4602 65.7443 66.3533C67.8433 64.2464 69 61.4443 69 58.4645C69 55.4847 67.8433 52.6825 65.7443 50.5747C65.2076 50.036 64.6164 49.552 63.9878 49.1371L63.1736 48.5994L48.0567 63.773L48.5925 64.5902C49.0067 65.2221 49.4889 65.8155 50.0246 66.3533C52.1237 68.4602 54.9153 69.6212 57.885 69.6212H57.884ZM63.4473 51.7184C63.6568 51.8932 63.8596 52.0776 64.0519 52.2715C65.6994 53.9252 66.6073 56.1242 66.6073 58.4635C66.6073 60.8028 65.7003 63.0009 64.0519 64.6555C62.4045 66.3091 60.2136 67.2204 57.883 67.2204C55.5525 67.2204 53.3626 66.3091 51.7142 64.6555C51.5209 64.4615 51.3372 64.2589 51.1631 64.0476L63.4463 51.7184H63.4473Z" fill="white"/>
<path d="M53.3741 45.3479C53.7147 45.3479 54.0428 45.2115 54.2887 44.9657L55.9294 43.3188C56.3169 42.9298 56.4193 42.3479 56.1897 41.8582L39.1507 4.40763L39.1402 4.38651C39.0235 4.15412 38.8407 3.9659 38.613 3.84298L31.8175 0.153529C31.4377 -0.051974 30.9833 -0.0510138 30.6016 0.15545C30.215 0.364794 29.9606 0.749872 29.9223 1.18681L29.9185 1.25499L29.6573 9.52024C29.6487 9.78336 29.7233 10.0474 29.8687 10.2664L52.3265 44.7928L52.3399 44.812C52.5561 45.1174 52.8938 45.3114 53.2669 45.3421C53.3033 45.345 53.3396 45.3469 53.375 45.3469L53.3741 45.3479ZM53.6984 42.1626L53.5597 42.3018L32.0586 9.24368L32.2519 3.11892L37.1435 5.77413L53.6994 42.1616L53.6984 42.1626Z" fill="white"/>
<path d="M51.21 47.5171C51.541 47.5171 51.8729 47.3904 52.1255 47.1369L54.1557 45.0991C54.5938 44.6583 54.6618 43.9804 54.3231 43.4724L31.8519 8.92676L31.8376 8.90659C31.6787 8.68284 31.4463 8.51383 31.1841 8.43124L23.7936 6.11213C23.3937 5.98633 22.9555 6.067 22.6216 6.32628C22.3001 6.57595 22.1145 6.96103 22.1174 7.36436L22.0648 15.742C22.0629 16.0675 22.1872 16.3844 22.4063 16.6197L50.2972 47.1311L50.3183 47.1522C50.5642 47.3961 50.8866 47.5171 51.21 47.5171ZM51.8328 44.0351L51.2492 44.6209L24.4604 15.3166L24.5015 8.84993L30.0858 10.6025L51.8328 44.0351Z" fill="white"/>
<path d="M46.1385 52.6096C46.4695 52.6096 46.8015 52.4809 47.054 52.2274L51.9945 47.2685C52.2375 47.0245 52.3762 46.6875 52.3752 46.3446C52.3743 46.0181 52.2518 45.7118 52.0308 45.4756L24.1418 14.968L24.1208 14.9469C23.894 14.7222 23.5936 14.5935 23.2741 14.5819L14.8818 14.291C14.4992 14.2785 14.1346 14.4341 13.8773 14.7193C13.6199 15.0045 13.5023 15.3848 13.5539 15.7631L14.6704 23.989C14.7115 24.2944 14.8598 24.57 15.0875 24.7716L45.3147 52.3052L45.3415 52.3273C45.575 52.5165 45.8572 52.6096 46.1385 52.6096ZM49.5568 46.3197L46.1059 49.7835L16.9847 23.2572L16.0988 16.7349L22.7211 16.9644L49.5568 46.3206V46.3197Z" fill="white"/>
<path d="M43.7858 54.97C44.1197 54.97 44.4507 54.8394 44.7004 54.5888L46.9219 52.359C47.1821 52.0978 47.3199 51.7377 47.3007 51.3718C47.2826 51.0299 47.1285 50.7101 46.875 50.4854L16.6574 22.9596L16.6306 22.9384C16.3885 22.7425 16.0824 22.6427 15.7724 22.6571L6.87884 23.0556C6.45598 23.0758 6.06947 23.3014 5.84273 23.6606C5.6179 24.0159 5.57868 24.4586 5.73749 24.8446L8.72816 32.0881C8.82862 32.3292 9.00082 32.5337 9.21704 32.6729L43.118 54.7808L43.141 54.7943C43.3409 54.9124 43.5638 54.97 43.7848 54.97H43.7858ZM44.4115 51.4841L43.6404 52.2581L10.8052 30.8445L8.55022 25.3843L15.4213 25.076L44.4105 51.4832L44.4115 51.4841ZM15.8824 25.0559C15.8824 25.0559 15.8796 25.0559 15.8776 25.0559H15.8824Z" fill="white"/>
<path d="M41.8141 56.952C42.1499 56.952 42.48 56.8195 42.7287 56.5689L44.5675 54.7241C44.8497 54.4399 44.9875 54.0366 44.9378 53.6438C44.8899 53.2645 44.6794 52.9332 44.3599 52.7306L10.4962 30.6438L10.4742 30.6313C10.2303 30.4863 9.9404 30.4277 9.65817 30.4652L1.08702 31.5955L1.05066 31.6022C0.625886 31.6848 0.2719 31.9738 0.102563 32.3743C-0.0639042 32.7689 -0.0265919 33.2174 0.204932 33.5746L4.45463 40.1498C4.58953 40.3581 4.77991 40.5214 5.00761 40.6213L41.3147 56.8512L41.3319 56.8579C41.4879 56.9223 41.6524 56.953 41.8141 56.953V56.952ZM41.0382 54.8711H41.0373C41.0373 54.8711 41.0373 54.8711 41.0382 54.8711ZM41.9107 53.9953L41.5711 54.3362L6.28003 38.5595L3.16595 33.7417L9.56441 32.8976L41.9117 53.9953H41.9107ZM9.97101 32.8438C9.97101 32.8438 9.9691 32.8438 9.96814 32.8438H9.97101Z" fill="white"/>
<path d="M55.976 41.4928L63.709 49.2548L62.0177 50.9524L54.2847 43.1904L55.976 41.4928Z" fill="white"/>
<path d="M52.5778 44.9851L60.2703 52.7064L58.579 54.4039L50.8866 46.6827L52.5778 44.9851Z" fill="white"/>
<path d="M49.0288 48.5478L56.7212 56.2691L55.03 57.9667L47.3375 50.2454L49.0288 48.5478Z" fill="white"/>
<path d="M45.4797 52.1105L53.1721 59.8317L51.4809 61.5293L43.7885 53.808L45.4797 52.1105Z" fill="white"/>
<path d="M42.6562 54.9433L50.3486 62.6646L48.6574 64.3621L40.965 56.6409L42.6562 54.9433Z" fill="white"/>
</g>
</svg>
