<svg width="92" height="112" viewBox="0 0 92 112" fill="none" xmlns="http://www.w3.org/2000/svg">
<path fill-rule="evenodd" clip-rule="evenodd" d="M72.9336 100.961C68.8474 90.2576 54.8293 77.9289 45.6853 76.4175C48.8161 84.0716 55.7523 95.4719 48.2979 101.555C42.8029 105.906 37.5292 109.436 31.9964 111.865C27.7375 112.54 18.4155 108.977 25.5622 106.343C30.4473 104.546 35.2783 101.933 40.3523 97.8145C45.1671 93.9065 41.8961 84.4873 37.0218 79.8613C27.5324 70.8578 27.3705 68.4287 31.3271 54.8424C32.9788 49.1693 35.5806 43.5231 38.015 39.8472C40.8273 35.8042 44.4978 35.3508 48.7675 37.3534C67.0931 43.1993 79.1087 37.4506 86.6279 32.5224C90.4603 30.0124 93.6451 35.0917 88.9651 41.2453C79.0331 47.7442 66.386 48.0789 52.5028 45.6067C48.557 51.2744 47.2885 54.5239 46.0686 59.695C45.0808 63.8784 47.0294 67.171 51.2127 68.5745C64.9934 73.2112 71.8216 83.7262 78.9954 92.7352C86.1691 102.036 80.442 105.058 74.8768 104.702C73.7379 104.632 73.9862 101.96 72.9336 100.94V100.961Z" fill="#1F1F1F"/>
<path fill-rule="evenodd" clip-rule="evenodd" d="M55.2941 13.7324C55.6827 16.5285 57.2481 19.0384 60.9186 21.6348C68.6861 27.1298 77.7437 22.8547 84.1131 34.093L83.0173 34.9027C77.9002 24.3553 68.6105 28.3497 60.3896 22.5362C55.9634 19.4055 54.1983 16.4853 53.8313 13.2628C53.2537 8.17262 56.1361 2.81797 61.1669 1.27419C67.6065 -0.706815 75.8868 3.93532 78.5479 10.4883C81.2091 17.0413 76.1837 23.8533 87.26 32.3927L86.1697 33.1322C83.5841 31.1404 81.3872 28.9111 79.8002 25.7749C76.4536 19.1518 79.7247 14.7634 76.988 10.0511C73.4848 4.05947 66.5971 0.561675 61.2911 2.4833C56.3143 4.28618 54.6787 9.2144 55.3049 13.7324H55.2941Z" fill="#FB491D"/>
<path fill-rule="evenodd" clip-rule="evenodd" d="M72.6853 8.38301C74.9848 10.9038 76.6473 13.9158 76.453 16.9116C76.3235 18.871 75.7459 20.825 73.441 22.6279C69.9486 25.3646 64.1136 22.1475 60.7831 18.3204C59.0828 16.361 57.8305 13.9212 57.5984 11.3302C56.9237 3.65451 67.1741 2.18091 72.6799 8.38301H72.6853ZM61.7331 17.6079C64.8099 21.0679 69.8569 23.9773 72.7339 21.7211C78.2829 17.3704 75.0766 11.9942 71.1253 8.29665C63.3147 0.502181 54.6404 9.61912 61.7331 17.6079Z" fill="#FB491D"/>
<path fill-rule="evenodd" clip-rule="evenodd" d="M49.3295 20.9115C53.1133 20.9115 56.1793 23.9558 56.1793 27.7073C56.1793 31.4588 53.1133 34.4978 49.3295 34.4978C45.5456 34.4978 42.4796 31.4534 42.4796 27.7073C42.4796 23.9612 45.5456 20.9115 49.3295 20.9115Z" fill="#1F1F1F"/>
<path fill-rule="evenodd" clip-rule="evenodd" d="M3.59336 37.4612C5.36385 36.8243 8.13294 42.1843 4.0036 42.1303C0.592166 42.0872 0.775693 38.476 3.59336 37.4612ZM4.72151 36.2899C2.15214 36.2899 0.0739746 38.3573 0.0739746 40.9104C0.0739746 43.4636 2.15754 45.531 4.72151 45.531C7.28548 45.531 9.36904 43.4636 9.36904 40.9104C9.36904 38.3573 7.28548 36.2899 4.72151 36.2899Z" fill="#FB491D"/>
</svg>
