<svg width="113" height="57" viewBox="0 0 113 57" fill="none" xmlns="http://www.w3.org/2000/svg">
<path fill-rule="evenodd" clip-rule="evenodd" d="M7.23266 36.836C6.40679 36.1019 2.91439 39.265 3.75106 40.1178C3.33003 40.323 7.00055 41.6886 7.15169 41.7426C14.6277 44.0313 31.3987 44.9651 48.294 43.7938C62.1556 42.833 73.5558 39.8587 87.099 36.7928C95.3414 34.9251 112.539 34.5473 103.438 33.3922C100.146 33.5703 96.4372 33.7862 93.015 34.2234C83.6875 35.4163 73.2643 38.9843 62.9707 40.5497C39.7114 44.0906 11.7398 40.8681 7.23266 36.8414V36.836Z" fill="#0479CE"/>
<path fill-rule="evenodd" clip-rule="evenodd" d="M3.44325 23.1795C2.32051 22.5479 -0.686087 24.788 0.49064 25.5113C0.0858031 25.6463 4.5822 26.9633 4.77112 27.0119C13.8017 29.3114 32.8668 31.1952 51.4786 31.4381C66.749 31.6379 78.4623 29.6623 92.9771 28.6205C98.0834 28.2534 103.228 28.1995 108.302 28.4046C115.421 29.1441 112.107 26.1807 109.306 25.2576C102.429 25.0957 96.1348 25.8892 89.9327 26.8716C96.2266 23.9082 97.9053 17.4038 90.6614 20.3078C80.7672 24.2752 69.6477 25.3926 57.4755 24.4642C50.1777 24.0755 42.0162 18.1433 30.006 5.32884C24.5596 -0.473829 16.56 -0.257916 10.2931 4.58934C6.42286 7.57973 3.23814 11.45 2.38528 14.7157C1.13838 19.4874 4.53901 20.351 8.59818 15.6387C18.2657 4.40581 22.2439 7.10473 33.3095 20.9016C30.4918 23.3252 25.6877 25.7218 20.3924 27.244C12.1338 25.9971 5.85069 24.5127 3.44325 23.1741V23.1795Z" fill="#0479CE"/>
<path fill-rule="evenodd" clip-rule="evenodd" d="M24.2087 52.3279C31.3986 52.2415 39.1984 52.3009 47.1441 53.2617C52.9629 53.9634 58.7062 54.9782 64.3092 56.2305C72.0011 58.4274 69.2913 54.854 66.4737 53.375C52.272 50.4224 39.6249 50.8866 26.6971 51.2267C22.1899 51.4156 19.9282 52.2955 24.2087 52.3279Z" fill="#0479CE"/>
<path fill-rule="evenodd" clip-rule="evenodd" d="M55.7697 10.5164C59.3323 10.4516 62.2687 13.2639 62.3335 16.7994C62.4036 20.335 59.559 23.2498 55.9964 23.3146C52.4338 23.3794 49.4974 20.5671 49.4326 17.0315C49.3625 13.5014 52.2071 10.5811 55.7697 10.5218V10.5164Z" fill="#0479CE"/>
<mask id="mask0_287_1364" style="mask-type:alpha" maskUnits="userSpaceOnUse" x="0" y="0" width="113" height="57">
<path fill-rule="evenodd" clip-rule="evenodd" d="M7.23266 36.836C6.40679 36.1019 2.91439 39.265 3.75106 40.1178C3.33003 40.323 7.00055 41.6886 7.15169 41.7426C14.6277 44.0313 31.3987 44.9651 48.294 43.7938C62.1556 42.833 73.5558 39.8587 87.099 36.7928C95.3414 34.9251 112.539 34.5473 103.438 33.3922C100.146 33.5703 96.4372 33.7862 93.015 34.2234C83.6875 35.4163 73.2643 38.9843 62.9707 40.5497C39.7114 44.0906 11.7398 40.8681 7.23266 36.8414V36.836Z" fill="#FB491D"/>
<path fill-rule="evenodd" clip-rule="evenodd" d="M3.44325 23.1795C2.32051 22.5479 -0.686087 24.788 0.49064 25.5113C0.0858031 25.6463 4.5822 26.9633 4.77112 27.0119C13.8017 29.3114 32.8668 31.1952 51.4786 31.4381C66.749 31.6379 78.4623 29.6623 92.9771 28.6205C98.0834 28.2534 103.228 28.1995 108.302 28.4046C115.421 29.1441 112.107 26.1807 109.306 25.2576C102.429 25.0957 96.1348 25.8892 89.9327 26.8716C96.2266 23.9082 97.9053 17.4038 90.6614 20.3078C80.7672 24.2752 69.6477 25.3926 57.4755 24.4642C50.1777 24.0755 42.0162 18.1433 30.006 5.32884C24.5596 -0.473829 16.56 -0.257916 10.2931 4.58934C6.42286 7.57973 3.23814 11.45 2.38528 14.7157C1.13838 19.4874 4.53901 20.351 8.59818 15.6387C18.2657 4.40581 22.2439 7.10473 33.3095 20.9016C30.4918 23.3252 25.6877 25.7218 20.3924 27.244C12.1338 25.9971 5.85069 24.5127 3.44325 23.1741V23.1795Z" fill="#FB491D"/>
<path fill-rule="evenodd" clip-rule="evenodd" d="M24.2087 52.3279C31.3986 52.2415 39.1984 52.3009 47.1441 53.2617C52.9629 53.9634 58.7062 54.9782 64.3092 56.2305C72.0011 58.4274 69.2913 54.854 66.4737 53.375C52.272 50.4224 39.6249 50.8866 26.6971 51.2267C22.1899 51.4156 19.9282 52.2955 24.2087 52.3279Z" fill="#FB491D"/>
<path fill-rule="evenodd" clip-rule="evenodd" d="M55.7697 10.5164C59.3323 10.4516 62.2687 13.2639 62.3335 16.7994C62.4036 20.335 59.559 23.2498 55.9964 23.3146C52.4338 23.3794 49.4974 20.5671 49.4326 17.0315C49.3625 13.5014 52.2071 10.5811 55.7697 10.5218V10.5164Z" fill="#FB491D"/>
</mask>
<g mask="url(#mask0_287_1364)">
<path d="M133.926 8.00006C133.926 19.6594 97.6942 29.1112 53.0001 29.1112C33.1668 29.1112 6.55561 27.0001 4.4445 22.0741C-13.197 18.2015 -27.9259 14.4855 -27.9259 8.00006C-27.9259 -3.65929 8.3059 -13.1111 53.0001 -13.1111C97.6942 -13.1111 133.926 -3.65929 133.926 8.00006Z" fill="#332E2E"/>
</g>
</svg>
