<svg width="39" height="20" viewBox="0 0 39 20" fill="none" xmlns="http://www.w3.org/2000/svg">
<path fill-rule="evenodd" clip-rule="evenodd" d="M2.78661 12.9638C2.50328 12.712 1.30513 13.7972 1.59217 14.0898C1.44773 14.1601 2.70698 14.6286 2.75883 14.6472C5.32364 15.4323 11.0773 15.7527 16.8736 15.3509C21.6292 15.0212 25.5403 14.0009 30.1866 12.949C33.0143 12.3083 38.9143 12.1786 35.7921 11.7823C34.6625 11.8435 33.3903 11.9175 32.2162 12.0675C29.0162 12.4768 25.4403 13.7009 21.9088 14.2379C13.9292 15.4527 4.3329 14.3472 2.78661 12.9657V12.9638Z" fill="#FB491D"/>
<path fill-rule="evenodd" clip-rule="evenodd" d="M1.48713 8.27874C1.10194 8.06207 0.0704618 8.83059 0.474165 9.07874C0.335276 9.12503 1.87787 9.57688 1.94268 9.59355C5.04082 10.3824 11.5815 11.0287 17.9667 11.1121C23.2056 11.1806 27.2241 10.5028 32.2037 10.1454C33.9556 10.0195 35.7204 10.001 37.4611 10.0713C39.9037 10.325 38.7667 9.30837 37.8056 8.9917C35.4463 8.93614 33.2871 9.20837 31.1593 9.5454C33.3185 8.52874 33.8945 6.29726 31.4093 7.29356C28.0148 8.65466 24.2 9.038 20.0241 8.71948C17.5204 8.58615 14.7204 6.55096 10.6001 2.15468C8.73156 0.16394 5.98712 0.238014 3.83712 1.90097C2.50935 2.9269 1.41676 4.25467 1.12416 5.37504C0.696387 7.01207 1.86305 7.30837 3.25564 5.69171C6.5723 1.83801 7.93711 2.76393 11.7334 7.49726C10.7667 8.32874 9.11859 9.15096 7.30193 9.67318C4.4686 9.2454 2.31305 8.73615 1.48713 8.27689V8.27874Z" fill="#FB491D"/>
<path fill-rule="evenodd" clip-rule="evenodd" d="M8.61085 18.2787C11.0775 18.249 13.7534 18.2694 16.4794 18.599C18.4756 18.8398 20.446 19.1879 22.3682 19.6176C25.0071 20.3713 24.0775 19.1453 23.1108 18.6379C18.2386 17.625 13.8997 17.7842 9.46455 17.9009C7.91826 17.9657 7.14233 18.2676 8.61085 18.2787Z" fill="#FB491D"/>
<path fill-rule="evenodd" clip-rule="evenodd" d="M19.4384 3.93434C20.6606 3.91211 21.668 4.87693 21.6903 6.08989C21.7143 7.30285 20.7384 8.30285 19.5162 8.32507C18.294 8.34729 17.2866 7.38248 17.2644 6.16952C17.2403 4.95841 18.2162 3.95656 19.4384 3.93619V3.93434Z" fill="#FB491D"/>
<mask id="mask0_287_1538" style="mask-type:alpha" maskUnits="userSpaceOnUse" x="0" y="0" width="39" height="20">
<path fill-rule="evenodd" clip-rule="evenodd" d="M2.78661 12.9638C2.50328 12.712 1.30513 13.7972 1.59217 14.0898C1.44773 14.1601 2.70698 14.6286 2.75883 14.6472C5.32364 15.4323 11.0773 15.7527 16.8736 15.3509C21.6292 15.0212 25.5403 14.0009 30.1866 12.949C33.0143 12.3083 38.9143 12.1786 35.7921 11.7823C34.6625 11.8435 33.3903 11.9175 32.2162 12.0675C29.0162 12.4768 25.4403 13.7009 21.9088 14.2379C13.9292 15.4527 4.3329 14.3472 2.78661 12.9657V12.9638Z" fill="#FB491D"/>
<path fill-rule="evenodd" clip-rule="evenodd" d="M1.48713 8.27874C1.10194 8.06207 0.0704618 8.83059 0.474165 9.07874C0.335276 9.12503 1.87787 9.57688 1.94268 9.59355C5.04082 10.3824 11.5815 11.0287 17.9667 11.1121C23.2056 11.1806 27.2241 10.5028 32.2037 10.1454C33.9556 10.0195 35.7204 10.001 37.4611 10.0713C39.9037 10.325 38.7667 9.30837 37.8056 8.9917C35.4463 8.93614 33.2871 9.20837 31.1593 9.5454C33.3185 8.52874 33.8945 6.29726 31.4093 7.29356C28.0148 8.65466 24.2 9.038 20.0241 8.71948C17.5204 8.58615 14.7204 6.55096 10.6001 2.15468C8.73156 0.16394 5.98712 0.238014 3.83712 1.90097C2.50935 2.9269 1.41676 4.25467 1.12416 5.37504C0.696387 7.01207 1.86305 7.30837 3.25564 5.69171C6.5723 1.83801 7.93711 2.76393 11.7334 7.49726C10.7667 8.32874 9.11859 9.15096 7.30193 9.67318C4.4686 9.2454 2.31305 8.73615 1.48713 8.27689V8.27874Z" fill="#FB491D"/>
<path fill-rule="evenodd" clip-rule="evenodd" d="M8.61085 18.2787C11.0775 18.249 13.7534 18.2694 16.4794 18.599C18.4756 18.8398 20.446 19.1879 22.3682 19.6176C25.0071 20.3713 24.0775 19.1453 23.1108 18.6379C18.2386 17.625 13.8997 17.7842 9.46455 17.9009C7.91826 17.9657 7.14233 18.2676 8.61085 18.2787Z" fill="#FB491D"/>
<path fill-rule="evenodd" clip-rule="evenodd" d="M19.4384 3.93434C20.6606 3.91211 21.668 4.87693 21.6903 6.08989C21.7143 7.30285 20.7384 8.30285 19.5162 8.32507C18.294 8.34729 17.2866 7.38248 17.2644 6.16952C17.2403 4.95841 18.2162 3.95656 19.4384 3.93619V3.93434Z" fill="#FB491D"/>
</mask>
<g mask="url(#mask0_287_1538)">
<path d="M46.2518 3.07114C46.2518 7.07114 33.8217 10.3138 18.4883 10.3138C11.6841 10.3138 2.55451 9.58952 1.83024 7.89957C-4.22207 6.57099 -9.27515 5.29611 -9.27515 3.07114C-9.27515 -0.928866 3.15498 -4.17151 18.4883 -4.17151C33.8217 -4.17151 46.2518 -0.928866 46.2518 3.07114Z" fill="#1F1F1F"/>
</g>
</svg>
