<svg width="33" height="39" viewBox="0 0 33 39" fill="none" xmlns="http://www.w3.org/2000/svg">
<path fill-rule="evenodd" clip-rule="evenodd" d="M25.7579 34.3582C24.3561 30.686 19.5468 26.4564 16.4098 25.9378C17.4839 28.5638 19.8635 32.4749 17.3061 34.5619C15.4209 36.0545 13.6117 37.2656 11.7135 38.0989C10.2524 38.3304 7.05426 37.1082 9.50611 36.2045C11.182 35.5878 12.8394 34.6915 14.5802 33.2786C16.232 31.9378 15.1098 28.7064 13.4376 27.1193C10.182 24.0304 10.1265 23.1971 11.4839 18.536C12.0506 16.5897 12.9431 14.6527 13.7783 13.3916C14.7431 12.0045 16.0024 11.849 17.4672 12.536C23.7542 14.5416 27.8764 12.5694 30.4561 10.8786C31.7709 10.0175 32.8635 11.7601 31.2579 13.8712C27.8505 16.1008 23.5116 16.2156 18.7487 15.3675C17.395 17.3119 16.9598 18.4267 16.5413 20.2008C16.2024 21.636 16.8709 22.7656 18.3061 23.2471C23.0339 24.8378 25.3764 28.4452 27.8376 31.536C30.2987 34.7267 28.3339 35.7638 26.4246 35.6415C26.0339 35.6175 26.119 34.7008 25.7579 34.3508V34.3582Z" fill="#1F1F1F"/>
<path fill-rule="evenodd" clip-rule="evenodd" d="M19.7064 4.43239C19.8397 5.39164 20.3767 6.25275 21.636 7.14349C24.3008 9.02867 27.4082 7.56201 29.5934 11.4176L29.2175 11.6953C27.4619 8.07682 24.2749 9.44719 21.4545 7.45275C19.936 6.37868 19.3304 5.37683 19.2045 4.27127C19.0064 2.52498 19.9953 0.687949 21.7212 0.15832C23.9304 -0.521308 26.7712 1.07128 27.6841 3.31942C28.5971 5.56757 26.873 7.9046 30.673 10.8342L30.2989 11.0879C29.4119 10.4046 28.6582 9.63978 28.1138 8.56386C26.9656 6.29164 28.0878 4.78609 27.1489 3.16943C25.9471 1.11387 23.5841 -0.0861235 21.7638 0.573134C20.0564 1.19165 19.4953 2.88239 19.7101 4.43239H19.7064Z" fill="#FB491D"/>
<path fill-rule="evenodd" clip-rule="evenodd" d="M25.6729 2.59721C26.4618 3.46202 27.0321 4.49535 26.9655 5.52313C26.921 6.19535 26.7229 6.86572 25.9321 7.48424C24.734 8.42312 22.7322 7.31942 21.5896 6.00646C21.0062 5.33424 20.5766 4.4972 20.497 3.60832C20.2655 0.97499 23.7821 0.469436 25.671 2.59721H25.6729ZM21.9155 5.76202C22.971 6.94905 24.7025 7.9472 25.6896 7.17312C27.5933 5.68054 26.4933 3.83609 25.1377 2.56758C22.4581 -0.106489 19.4822 3.02128 21.9155 5.76202Z" fill="#FB491D"/>
<path fill-rule="evenodd" clip-rule="evenodd" d="M17.6603 6.89532C18.9584 6.89532 20.0103 7.93977 20.0103 9.2268C20.0103 10.5138 18.9584 11.5564 17.6603 11.5564C16.3622 11.5564 15.3103 10.512 15.3103 9.2268C15.3103 7.94162 16.3622 6.89532 17.6603 6.89532Z" fill="#1F1F1F"/>
<path fill-rule="evenodd" clip-rule="evenodd" d="M1.96937 12.5731C2.57677 12.3545 3.52677 14.1934 2.11011 14.1749C0.93974 14.1601 1.0027 12.9212 1.96937 12.5731ZM2.3564 12.1712C1.47492 12.1712 0.761963 12.8805 0.761963 13.7564C0.761963 14.6323 1.47678 15.3416 2.3564 15.3416C3.23603 15.3416 3.95084 14.6323 3.95084 13.7564C3.95084 12.8805 3.23603 12.1712 2.3564 12.1712Z" fill="#FB491D"/>
</svg>
